# xmcd
#
# Track frame offsets:
# 150
# 27234
# 63597
# 110910
# 151201
# 174802
# 198329
# 222365
# 263897
# 291287
# 321117
# 339377
#
# Disc length: 4785 seconds
#
#
# Revision: 0
# Processed by: cddbd v1.5.2PL0 Copyright (c) Steve Scherf et al.
# Submitted via: FreeRIP 2.96 
#
DISCID=b112af0c
DTITLE=Elizabeth George - Gott schütze diese Haus CD 3v4
DYEAR=2006
DGENRE=Hörbuch
TTITLE0=28 Hastig drueckte Barbara ihre Zigarette aus
TTITLE1=29 Waehrend sie durch die Dunkelheit
TTITLE2=30 Lynley fuhr aus dem Schlaf
TTITLE3=31 Allein ging er zum Gasthaus zurueck
TTITLE4=32 Marsha Fitzallan
TTITLE5=33 Sie waren im Eichenzimmer
TTITLE6=34 Es war so ploetzlich, so unerwartet gekommen
TTITLE7=35 Wir muessen das ganze Haus auseinandernehmen
TTITLE8=36 Sie sassen an einem Ecktisch
TTITLE9=37 Irgendwie hatten sie den Morgen ueberstanden
TTITLE10=38 Er trommelte mit den Fingern
TTITLE11=39 Testament House
EXTD=gelesen von Hannelore Hoger
EXTT0=
EXTT1=
EXTT2=
EXTT3=
EXTT4=
EXTT5=
EXTT6=
EXTT7=
EXTT8=
EXTT9=
EXTT10=
EXTT11=
PLAYORDER=
